<?xml version="1.0" encoding="UTF-8" standalone="no"?>
<!DOCTYPE svg PUBLIC "-//W3C//DTD SVG 1.1//EN"
 "http://www.w3.org/Graphics/SVG/1.1/DTD/svg11.dtd">
<!-- Generated by graphviz version 2.26.3 (20100126.1600)
 -->
<!-- Title: G Pages: 1 -->
<svg width="266pt" height="268pt"
 viewBox="0.00 0.00 266.00 268.00" xmlns="http://www.w3.org/2000/svg" xmlns:xlink="http://www.w3.org/1999/xlink">
<g id="graph1" class="graph" transform="scale(1 1) rotate(0) translate(4 264)">
<title>G</title>
<polygon fill="white" stroke="white" points="-4,5 -4,-264 263,-264 263,5 -4,5"/>
<!-- plus1 -->
<g id="node1" class="node"><title>plus1</title>
<ellipse fill="none" stroke="black" cx="184" cy="-241" rx="19.0919" ry="19.0919"/>
<text text-anchor="middle" x="184" y="-237.9" font-family="Helvetica,sans-Serif" font-size="14.00">+</text>
</g>
<!-- mult -->
<g id="node3" class="node"><title>mult</title>
<ellipse fill="none" stroke="black" cx="129" cy="-167" rx="19.0919" ry="19.0919"/>
<text text-anchor="middle" x="129" y="-163.9" font-family="Helvetica,sans-Serif" font-size="14.00">*</text>
</g>
<!-- plus1&#45;&gt;mult -->
<g id="edge2" class="edge"><title>plus1&#45;&gt;mult</title>
<path fill="none" stroke="black" d="M172.604,-225.667C165.082,-215.547 155.078,-202.087 146.55,-190.612"/>
<polygon fill="black" stroke="black" points="149.156,-188.251 140.381,-182.313 143.538,-192.427 149.156,-188.251"/>
</g>
<!-- hidden1 -->
<!-- plus1&#45;&gt;hidden1 -->
<!-- 7 -->
<g id="node10" class="node"><title>7</title>
<ellipse fill="none" stroke="black" cx="239" cy="-167" rx="19.0919" ry="19.0919"/>
<text text-anchor="middle" x="239" y="-163.9" font-family="Helvetica,sans-Serif" font-size="14.00">7</text>
</g>
<!-- plus1&#45;&gt;7 -->
<g id="edge6" class="edge"><title>plus1&#45;&gt;7</title>
<path fill="none" stroke="black" d="M195.396,-225.667C202.918,-215.547 212.922,-202.087 221.45,-190.612"/>
<polygon fill="black" stroke="black" points="224.462,-192.427 227.619,-182.313 218.844,-188.251 224.462,-192.427"/>
</g>
<!-- plus2 -->
<g id="node2" class="node"><title>plus2</title>
<ellipse fill="none" stroke="black" cx="74" cy="-93" rx="19.0919" ry="19.0919"/>
<text text-anchor="middle" x="74" y="-89.9" font-family="Helvetica,sans-Serif" font-size="14.00">+</text>
</g>
<!-- hidden2 -->
<!-- plus2&#45;&gt;hidden2 -->
<!-- hidden3 -->
<!-- plus2&#45;&gt;hidden3 -->
<!-- a -->
<g id="node20" class="node"><title>a</title>
<ellipse fill="none" stroke="black" cx="19" cy="-19" rx="19.0919" ry="19.0919"/>
<text text-anchor="middle" x="19" y="-15.9" font-family="Helvetica,sans-Serif" font-size="14.00">a</text>
</g>
<!-- plus2&#45;&gt;a -->
<g id="edge22" class="edge"><title>plus2&#45;&gt;a</title>
<path fill="none" stroke="black" d="M62.604,-77.6672C55.082,-67.5467 45.0781,-54.0868 36.5498,-42.6125"/>
<polygon fill="black" stroke="black" points="39.1558,-40.2513 30.3814,-34.3132 33.5376,-44.427 39.1558,-40.2513"/>
</g>
<!-- b -->
<g id="node23" class="node"><title>b</title>
<ellipse fill="none" stroke="black" cx="129" cy="-19" rx="19.0919" ry="19.0919"/>
<text text-anchor="middle" x="129" y="-15.9" font-family="Helvetica,sans-Serif" font-size="14.00">b</text>
</g>
<!-- plus2&#45;&gt;b -->
<g id="edge26" class="edge"><title>plus2&#45;&gt;b</title>
<path fill="none" stroke="black" d="M85.396,-77.6672C92.918,-67.5467 102.922,-54.0868 111.45,-42.6125"/>
<polygon fill="black" stroke="black" points="114.462,-44.427 117.619,-34.3132 108.844,-40.2513 114.462,-44.427"/>
</g>
<!-- mult&#45;&gt;plus2 -->
<g id="edge12" class="edge"><title>mult&#45;&gt;plus2</title>
<path fill="none" stroke="black" d="M117.604,-151.667C110.082,-141.547 100.078,-128.087 91.5498,-116.612"/>
<polygon fill="black" stroke="black" points="94.1558,-114.251 85.3814,-108.313 88.5376,-118.427 94.1558,-114.251"/>
</g>
<!-- mult&#45;&gt;hidden1 -->
<!-- mult&#45;&gt;hidden2 -->
<!-- c -->
<g id="node16" class="node"><title>c</title>
<ellipse fill="none" stroke="black" cx="184" cy="-93" rx="19.0919" ry="19.0919"/>
<text text-anchor="middle" x="184" y="-89.9" font-family="Helvetica,sans-Serif" font-size="14.00">c</text>
</g>
<!-- mult&#45;&gt;c -->
<g id="edge16" class="edge"><title>mult&#45;&gt;c</title>
<path fill="none" stroke="black" d="M140.396,-151.667C147.918,-141.547 157.922,-128.087 166.45,-116.612"/>
<polygon fill="black" stroke="black" points="169.462,-118.427 172.619,-108.313 163.844,-114.251 169.462,-118.427"/>
</g>
<!-- hidden1&#45;&gt;7 -->
<!-- hidden2&#45;&gt;c -->
<!-- hidden3&#45;&gt;b -->
<!-- a&#45;&gt;hidden3 -->
</g>
</svg>
