<?xml version="1.0" encoding="UTF-8" standalone="no"?>
<!DOCTYPE svg PUBLIC "-//W3C//DTD SVG 1.1//EN"
 "http://www.w3.org/Graphics/SVG/1.1/DTD/svg11.dtd">
<!-- Generated by graphviz version 2.26.3 (20100126.1600)
 -->
<!-- Title: G Pages: 1 -->
<svg width="405pt" height="268pt"
 viewBox="0.00 0.00 405.00 268.00" xmlns="http://www.w3.org/2000/svg" xmlns:xlink="http://www.w3.org/1999/xlink">
<g id="graph1" class="graph" transform="scale(1 1) rotate(0) translate(4 264)">
<title>G</title>
<polygon fill="white" stroke="white" points="-4,5 -4,-264 402,-264 402,5 -4,5"/>
<!-- mult -->
<g id="node1" class="node"><title>mult</title>
<ellipse fill="none" stroke="black" cx="212" cy="-241" rx="19.0919" ry="19.0919"/>
<text text-anchor="middle" x="212" y="-237.9" font-family="Helvetica,sans-Serif" font-size="14.00">*</text>
</g>
<!-- div -->
<g id="node2" class="node"><title>div</title>
<ellipse fill="none" stroke="black" cx="157" cy="-167" rx="19.0919" ry="19.0919"/>
<text text-anchor="middle" x="157" y="-163.9" font-family="Helvetica,sans-Serif" font-size="14.00">/</text>
</g>
<!-- mult&#45;&gt;div -->
<g id="edge2" class="edge"><title>mult&#45;&gt;div</title>
<path fill="none" stroke="black" d="M200.604,-225.667C193.082,-215.547 183.078,-202.087 174.55,-190.612"/>
<polygon fill="black" stroke="black" points="177.156,-188.251 168.381,-182.313 171.538,-192.427 177.156,-188.251"/>
</g>
<!-- caret -->
<g id="node5" class="node"><title>caret</title>
<ellipse fill="none" stroke="black" cx="295" cy="-167" rx="19.0919" ry="19.0919"/>
<text text-anchor="middle" x="295" y="-163.9" font-family="Helvetica,sans-Serif" font-size="14.00">^</text>
</g>
<!-- mult&#45;&gt;caret -->
<g id="edge6" class="edge"><title>mult&#45;&gt;caret</title>
<path fill="none" stroke="black" d="M226.457,-228.11C239.311,-216.65 258.295,-199.725 273.027,-186.59"/>
<polygon fill="black" stroke="black" points="275.573,-189.009 280.708,-179.742 270.915,-183.784 275.573,-189.009"/>
</g>
<!-- hidden1 -->
<!-- mult&#45;&gt;hidden1 -->
<!-- plus -->
<g id="node3" class="node"><title>plus</title>
<ellipse fill="none" stroke="black" cx="88" cy="-93" rx="19.0919" ry="19.0919"/>
<text text-anchor="middle" x="88" y="-89.9" font-family="Helvetica,sans-Serif" font-size="14.00">+</text>
</g>
<!-- div&#45;&gt;plus -->
<g id="edge12" class="edge"><title>div&#45;&gt;plus</title>
<path fill="none" stroke="black" d="M144.022,-153.081C133.966,-142.297 119.85,-127.158 108.303,-114.774"/>
<polygon fill="black" stroke="black" points="110.534,-112.035 101.155,-107.108 105.415,-116.809 110.534,-112.035"/>
</g>
<!-- minus -->
<g id="node4" class="node"><title>minus</title>
<ellipse fill="none" stroke="black" cx="212" cy="-93" rx="19.0919" ry="19.0919"/>
<text text-anchor="middle" x="212" y="-89.9" font-family="Helvetica,sans-Serif" font-size="14.00">&#45;</text>
</g>
<!-- div&#45;&gt;minus -->
<g id="edge16" class="edge"><title>div&#45;&gt;minus</title>
<path fill="none" stroke="black" d="M168.396,-151.667C175.918,-141.547 185.922,-128.087 194.45,-116.612"/>
<polygon fill="black" stroke="black" points="197.462,-118.427 200.619,-108.313 191.844,-114.251 197.462,-118.427"/>
</g>
<!-- div&#45;&gt;hidden1 -->
<!-- hidden2 -->
<!-- div&#45;&gt;hidden2 -->
<!-- plus&#45;&gt;hidden2 -->
<!-- hidden3 -->
<!-- plus&#45;&gt;hidden3 -->
<!-- 5 -->
<g id="node23" class="node"><title>5</title>
<ellipse fill="none" stroke="black" cx="19" cy="-19" rx="19.0919" ry="19.0919"/>
<text text-anchor="middle" x="19" y="-15.9" font-family="Helvetica,sans-Serif" font-size="14.00">5</text>
</g>
<!-- plus&#45;&gt;5 -->
<g id="edge22" class="edge"><title>plus&#45;&gt;5</title>
<path fill="none" stroke="black" d="M75.0216,-79.0812C64.9662,-68.2971 50.8496,-53.1575 39.3029,-40.7742"/>
<polygon fill="black" stroke="black" points="41.5343,-38.035 32.1548,-33.108 36.4146,-42.8088 41.5343,-38.035"/>
</g>
<!-- z -->
<g id="node26" class="node"><title>z</title>
<ellipse fill="none" stroke="black" cx="129" cy="-19" rx="19.0919" ry="19.0919"/>
<text text-anchor="middle" x="129" y="-15.9" font-family="Helvetica,sans-Serif" font-size="14.00">z</text>
</g>
<!-- plus&#45;&gt;z -->
<g id="edge26" class="edge"><title>plus&#45;&gt;z</title>
<path fill="none" stroke="black" d="M97.3035,-76.2083C102.493,-66.8415 109.064,-54.9823 114.875,-44.4932"/>
<polygon fill="black" stroke="black" points="117.948,-46.1687 119.733,-35.7253 111.825,-42.7762 117.948,-46.1687"/>
</g>
<!-- hidden4 -->
<!-- minus&#45;&gt;hidden4 -->
<!-- hidden5 -->
<!-- minus&#45;&gt;hidden5 -->
<!-- 8 -->
<g id="node30" class="node"><title>8</title>
<ellipse fill="none" stroke="black" cx="185" cy="-19" rx="19.0919" ry="19.0919"/>
<text text-anchor="middle" x="185" y="-15.9" font-family="Helvetica,sans-Serif" font-size="14.00">8</text>
</g>
<!-- minus&#45;&gt;8 -->
<g id="edge32" class="edge"><title>minus&#45;&gt;8</title>
<path fill="none" stroke="black" d="M205.464,-75.0867C202.337,-66.5151 198.522,-56.0615 195.038,-46.5122"/>
<polygon fill="black" stroke="black" points="198.285,-45.1994 191.569,-37.0049 191.709,-47.5988 198.285,-45.1994"/>
</g>
<!-- hidden6 -->
<!-- caret&#45;&gt;hidden6 -->
<!-- 4 -->
<g id="node36" class="node"><title>4</title>
<ellipse fill="none" stroke="black" cx="268" cy="-93" rx="19.0919" ry="19.0919"/>
<text text-anchor="middle" x="268" y="-89.9" font-family="Helvetica,sans-Serif" font-size="14.00">4</text>
</g>
<!-- caret&#45;&gt;4 -->
<g id="edge42" class="edge"><title>caret&#45;&gt;4</title>
<path fill="none" stroke="black" d="M288.464,-149.087C285.337,-140.515 281.522,-130.062 278.038,-120.512"/>
<polygon fill="black" stroke="black" points="281.285,-119.199 274.569,-111.005 274.709,-121.599 281.285,-119.199"/>
</g>
<!-- 2 -->
<g id="node39" class="node"><title>2</title>
<ellipse fill="none" stroke="black" cx="378" cy="-93" rx="19.0919" ry="19.0919"/>
<text text-anchor="middle" x="378" y="-89.9" font-family="Helvetica,sans-Serif" font-size="14.00">2</text>
</g>
<!-- caret&#45;&gt;2 -->
<g id="edge46" class="edge"><title>caret&#45;&gt;2</title>
<path fill="none" stroke="black" d="M309.457,-154.11C322.311,-142.65 341.295,-125.725 356.027,-112.59"/>
<polygon fill="black" stroke="black" points="358.573,-115.009 363.708,-105.742 353.915,-109.784 358.573,-115.009"/>
</g>
<!-- hidden1&#45;&gt;caret -->
<!-- hidden2&#45;&gt;minus -->
<!-- hidden3&#45;&gt;z -->
<!-- hidden4&#45;&gt;hidden5 -->
<!-- hidden6&#45;&gt;hidden2 -->
<!-- 5&#45;&gt;hidden3 -->
<!-- 8&#45;&gt;hidden4 -->
<!-- 4&#45;&gt;hidden6 -->
</g>
</svg>
