<?xml version="1.0" encoding="UTF-8" standalone="no"?>
<!DOCTYPE svg PUBLIC "-//W3C//DTD SVG 1.1//EN"
 "http://www.w3.org/Graphics/SVG/1.1/DTD/svg11.dtd">
<!-- Generated by graphviz version 2.36.0 (20140111.2315)
 -->
<!-- Title: G Pages: 1 -->
<svg width="505pt" height="200pt"
 viewBox="0.00 0.00 505.36 199.52" xmlns="http://www.w3.org/2000/svg" xmlns:xlink="http://www.w3.org/1999/xlink">
<g id="graph0" class="graph" transform="scale(1 1) rotate(0) translate(4 195.52)">
<title>G</title>
<polygon fill="white" stroke="none" points="-4,4 -4,-195.52 501.36,-195.52 501.36,4 -4,4"/>
<!-- P1 -->
<g id="node1" class="node"><title>P1</title>
<ellipse fill="black" stroke="black" cx="83.72" cy="-173.52" rx="18" ry="18"/>
<text text-anchor="middle" x="83.72" y="-169.82" font-family="Helvetica,sans-Serif" font-weight="bold" font-size="14.00" fill="white">P</text>
</g>
<!-- N1 -->
<g id="node2" class="node"><title>N1</title>
<ellipse fill="black" stroke="black" cx="33.32" cy="-137.52" rx="18" ry="18"/>
<text text-anchor="middle" x="33.32" y="-133.82" font-family="Helvetica,sans-Serif" font-weight="bold" font-size="14.00" fill="white">N</text>
</g>
<!-- P1&#45;&gt;N1 -->
<g id="edge1" class="edge"><title>P1&#45;&gt;N1</title>
<path fill="none" stroke="black" d="M68.8709,-162.914C65.0091,-160.155 60.7547,-157.116 56.5722,-154.129"/>
<polygon fill="black" stroke="black" points="58.4088,-151.139 48.2371,-148.175 54.3401,-156.836 58.4088,-151.139"/>
</g>
<!-- S1 -->
<g id="node3" class="node"><title>S1</title>
<ellipse fill="red" stroke="black" cx="137.72" cy="-137.52" rx="18" ry="18"/>
<text text-anchor="middle" x="137.72" y="-133.82" font-family="Helvetica,sans-Serif" font-weight="bold" font-size="14.00" fill="white">S</text>
</g>
<!-- P1&#45;&gt;S1 -->
<g id="edge2" class="edge"><title>P1&#45;&gt;S1</title>
<path fill="none" stroke="black" d="M98.762,-163.492C103.48,-160.347 108.809,-156.794 113.976,-153.349"/>
<polygon fill="black" stroke="black" points="116.004,-156.204 122.383,-147.744 112.121,-150.379 116.004,-156.204"/>
</g>
<!-- dot1 -->
<!-- N1&#45;&gt;dot1 -->
<g id="edge5" class="edge"><title>N1&#45;&gt;dot1</title>
<path fill="none" stroke="black" d="M25.6223,-121.025C22.4307,-114.186 18.7419,-106.281 15.5762,-99.4975"/>
<polygon fill="black" stroke="black" points="18.5791,-97.6557 11.1785,-90.074 12.2358,-100.616 18.5791,-97.6557"/>
</g>
<!-- dot2 -->
<!-- N1&#45;&gt;dot2 -->
<g id="edge6" class="edge"><title>N1&#45;&gt;dot2</title>
<path fill="none" stroke="black" d="M39.0153,-120.434C41.2059,-113.862 43.6999,-106.38 45.8671,-99.8786"/>
<polygon fill="black" stroke="black" points="49.2529,-100.789 49.0948,-90.1956 42.6121,-98.5756 49.2529,-100.789"/>
</g>
<!-- SL1 -->
<g id="node4" class="node"><title>SL1</title>
<ellipse fill="black" stroke="black" cx="101.72" cy="-83.52" rx="18" ry="18"/>
<text text-anchor="middle" x="101.72" y="-79.82" font-family="Helvetica,sans-Serif" font-weight="bold" font-size="14.00" fill="white">S</text>
</g>
<!-- S1&#45;&gt;SL1 -->
<g id="edge3" class="edge"><title>S1&#45;&gt;SL1</title>
<path fill="none" stroke="black" d="M127.692,-122.478C124.547,-117.76 120.994,-112.431 117.549,-107.264"/>
<polygon fill="black" stroke="black" points="120.404,-105.236 111.944,-98.8566 114.579,-109.119 120.404,-105.236"/>
</g>
<!-- SR1 -->
<g id="node5" class="node"><title>SR1</title>
<ellipse fill="black" stroke="black" cx="173.72" cy="-83.52" rx="18" ry="18"/>
<text text-anchor="middle" x="173.72" y="-79.82" font-family="Helvetica,sans-Serif" font-weight="bold" font-size="14.00" fill="white">S</text>
</g>
<!-- S1&#45;&gt;SR1 -->
<g id="edge4" class="edge"><title>S1&#45;&gt;SR1</title>
<path fill="none" stroke="black" d="M147.748,-122.478C150.893,-117.76 154.446,-112.431 157.891,-107.264"/>
<polygon fill="black" stroke="black" points="160.861,-109.119 163.496,-98.8566 155.036,-105.236 160.861,-109.119"/>
</g>
<!-- dot3 -->
<!-- SL1&#45;&gt;dot3 -->
<g id="edge7" class="edge"><title>SL1&#45;&gt;dot3</title>
<path fill="none" stroke="black" d="M95.004,-66.7301C92.3058,-59.9845 89.2088,-52.2419 86.5409,-45.5722"/>
<polygon fill="black" stroke="black" points="89.7845,-44.257 82.8208,-36.2721 83.2851,-46.8567 89.7845,-44.257"/>
</g>
<!-- dot4 -->
<!-- SL1&#45;&gt;dot4 -->
<g id="edge8" class="edge"><title>SL1&#45;&gt;dot4</title>
<path fill="none" stroke="black" d="M108.436,-66.7301C111.134,-59.9845 114.231,-52.2419 116.899,-45.5722"/>
<polygon fill="black" stroke="black" points="120.155,-46.8567 120.619,-36.2721 113.656,-44.257 120.155,-46.8567"/>
</g>
<!-- dot5 -->
<!-- SR1&#45;&gt;dot5 -->
<g id="edge9" class="edge"><title>SR1&#45;&gt;dot5</title>
<path fill="none" stroke="black" d="M167.004,-66.7301C164.306,-59.9845 161.209,-52.2419 158.541,-45.5722"/>
<polygon fill="black" stroke="black" points="161.784,-44.257 154.821,-36.2721 155.285,-46.8567 161.784,-44.257"/>
</g>
<!-- dot6 -->
<!-- SR1&#45;&gt;dot6 -->
<g id="edge10" class="edge"><title>SR1&#45;&gt;dot6</title>
<path fill="none" stroke="black" d="M180.436,-66.7301C183.134,-59.9845 186.231,-52.2419 188.899,-45.5722"/>
<polygon fill="black" stroke="black" points="192.155,-46.8567 192.619,-36.2721 185.656,-44.257 192.155,-46.8567"/>
</g>
<!-- tri1 -->
<g id="node12" class="node"><title>tri1</title>
<polygon fill="none" stroke="black" points="11,-90 -1.77636e-15,-63 22,-63 11,-90"/>
<text text-anchor="middle" x="11" y="-68.3" font-family="Helvetica,sans-Serif" font-weight="bold" font-size="14.00">1</text>
</g>
<!-- tri2 -->
<g id="node13" class="node"><title>tri2</title>
<polygon fill="none" stroke="black" points="49.16,-90 38.16,-63 60.16,-63 49.16,-90"/>
<text text-anchor="middle" x="49.16" y="-68.3" font-family="Helvetica,sans-Serif" font-weight="bold" font-size="14.00">2</text>
</g>
<!-- tri3 -->
<g id="node14" class="node"><title>tri3</title>
<polygon fill="none" stroke="black" points="83,-36 72,-9 94,-9 83,-36"/>
<text text-anchor="middle" x="83" y="-14.3" font-family="Helvetica,sans-Serif" font-weight="bold" font-size="14.00">3</text>
</g>
<!-- tri4 -->
<g id="node15" class="node"><title>tri4</title>
<polygon fill="none" stroke="black" points="120.44,-36 109.44,-9 131.44,-9 120.44,-36"/>
<text text-anchor="middle" x="120.44" y="-14.3" font-family="Helvetica,sans-Serif" font-weight="bold" font-size="14.00">4</text>
</g>
<!-- tri5 -->
<g id="node16" class="node"><title>tri5</title>
<polygon fill="none" stroke="black" points="155,-36 144,-9 166,-9 155,-36"/>
<text text-anchor="middle" x="155" y="-14.3" font-family="Helvetica,sans-Serif" font-weight="bold" font-size="14.00">5</text>
</g>
<!-- tri6 -->
<g id="node17" class="node"><title>tri6</title>
<polygon fill="none" stroke="black" points="192.44,-36 181.44,-9 203.44,-9 192.44,-36"/>
<text text-anchor="middle" x="192.44" y="-14.3" font-family="Helvetica,sans-Serif" font-weight="bold" font-size="14.00">6</text>
</g>
<!-- subscript1 -->
<g id="node18" class="node"><title>subscript1</title>
<text text-anchor="middle" x="110.36" y="-76.7" font-family="Helvetica,sans-Serif" font-weight="bold" font-size="10.00" fill="white">L</text>
</g>
<!-- subscript2 -->
<g id="node19" class="node"><title>subscript2</title>
<text text-anchor="middle" x="182.36" y="-76.7" font-family="Helvetica,sans-Serif" font-weight="bold" font-size="10.00" fill="white">R</text>
</g>
<!-- arrow -->
<g id="node20" class="node"><title>arrow</title>
<polygon fill="blue" stroke="black" points="263.72,-113.52 209.72,-113.52 209.72,-89.52 263.72,-89.52 263.72,-83.52 281.72,-101.52 263.72,-119.52 263.72,-113.52"/>
</g>
<!-- S2 -->
<g id="node21" class="node"><title>S2</title>
<ellipse fill="black" stroke="black" cx="407.72" cy="-173.52" rx="18" ry="18"/>
<text text-anchor="middle" x="407.72" y="-169.82" font-family="Helvetica,sans-Serif" font-weight="bold" font-size="14.00" fill="white">S</text>
</g>
<!-- P2 -->
<g id="node23" class="node"><title>P2</title>
<ellipse fill="red" stroke="black" cx="353.72" cy="-137.52" rx="18" ry="18"/>
<text text-anchor="middle" x="353.72" y="-133.82" font-family="Helvetica,sans-Serif" font-weight="bold" font-size="14.00" fill="white">P</text>
</g>
<!-- S2&#45;&gt;P2 -->
<g id="edge11" class="edge"><title>S2&#45;&gt;P2</title>
<path fill="none" stroke="black" d="M392.678,-163.492C387.96,-160.347 382.631,-156.794 377.464,-153.349"/>
<polygon fill="black" stroke="black" points="379.319,-150.379 369.057,-147.744 375.436,-156.204 379.319,-150.379"/>
</g>
<!-- SR2 -->
<g id="node25" class="node"><title>SR2</title>
<ellipse fill="black" stroke="black" cx="461.72" cy="-137.52" rx="18" ry="18"/>
<text text-anchor="middle" x="461.72" y="-133.82" font-family="Helvetica,sans-Serif" font-weight="bold" font-size="14.00" fill="white">S</text>
</g>
<!-- S2&#45;&gt;SR2 -->
<g id="edge12" class="edge"><title>S2&#45;&gt;SR2</title>
<path fill="none" stroke="black" d="M422.762,-163.492C427.48,-160.347 432.809,-156.794 437.976,-153.349"/>
<polygon fill="black" stroke="black" points="440.004,-156.204 446.383,-147.744 436.121,-150.379 440.004,-156.204"/>
</g>
<!-- N2 -->
<g id="node22" class="node"><title>N2</title>
<ellipse fill="black" stroke="black" cx="317.72" cy="-83.52" rx="18" ry="18"/>
<text text-anchor="middle" x="317.72" y="-79.82" font-family="Helvetica,sans-Serif" font-weight="bold" font-size="14.00" fill="white">N</text>
</g>
<!-- dot1b -->
<!-- N2&#45;&gt;dot1b -->
<g id="edge15" class="edge"><title>N2&#45;&gt;dot1b</title>
<path fill="none" stroke="black" d="M311.004,-66.7301C308.306,-59.9845 305.209,-52.2419 302.541,-45.5722"/>
<polygon fill="black" stroke="black" points="305.784,-44.257 298.821,-36.2721 299.285,-46.8567 305.784,-44.257"/>
</g>
<!-- dot2b -->
<!-- N2&#45;&gt;dot2b -->
<g id="edge16" class="edge"><title>N2&#45;&gt;dot2b</title>
<path fill="none" stroke="black" d="M324.436,-66.7301C327.134,-59.9845 330.231,-52.2419 332.899,-45.5722"/>
<polygon fill="black" stroke="black" points="336.155,-46.8567 336.619,-36.2721 329.656,-44.257 336.155,-46.8567"/>
</g>
<!-- P2&#45;&gt;N2 -->
<g id="edge13" class="edge"><title>P2&#45;&gt;N2</title>
<path fill="none" stroke="black" d="M343.692,-122.478C340.547,-117.76 336.994,-112.431 333.549,-107.264"/>
<polygon fill="black" stroke="black" points="336.404,-105.236 327.944,-98.8566 330.579,-109.119 336.404,-105.236"/>
</g>
<!-- SL2 -->
<g id="node24" class="node"><title>SL2</title>
<ellipse fill="black" stroke="black" cx="389.72" cy="-83.52" rx="18" ry="18"/>
<text text-anchor="middle" x="389.72" y="-79.82" font-family="Helvetica,sans-Serif" font-weight="bold" font-size="14.00" fill="white">S</text>
</g>
<!-- P2&#45;&gt;SL2 -->
<g id="edge14" class="edge"><title>P2&#45;&gt;SL2</title>
<path fill="none" stroke="black" d="M363.748,-122.478C366.893,-117.76 370.446,-112.431 373.891,-107.264"/>
<polygon fill="black" stroke="black" points="376.861,-109.119 379.496,-98.8566 371.036,-105.236 376.861,-109.119"/>
</g>
<!-- dot3b -->
<!-- SL2&#45;&gt;dot3b -->
<g id="edge17" class="edge"><title>SL2&#45;&gt;dot3b</title>
<path fill="none" stroke="black" d="M383.004,-66.7301C380.306,-59.9845 377.209,-52.2419 374.541,-45.5722"/>
<polygon fill="black" stroke="black" points="377.784,-44.257 370.821,-36.2721 371.285,-46.8567 377.784,-44.257"/>
</g>
<!-- dot4b -->
<!-- SL2&#45;&gt;dot4b -->
<g id="edge18" class="edge"><title>SL2&#45;&gt;dot4b</title>
<path fill="none" stroke="black" d="M396.436,-66.7301C399.134,-59.9845 402.231,-52.2419 404.899,-45.5722"/>
<polygon fill="black" stroke="black" points="408.155,-46.8567 408.619,-36.2721 401.656,-44.257 408.155,-46.8567"/>
</g>
<!-- dot5b -->
<!-- SR2&#45;&gt;dot5b -->
<g id="edge19" class="edge"><title>SR2&#45;&gt;dot5b</title>
<path fill="none" stroke="black" d="M455.004,-120.73C452.306,-113.985 449.209,-106.242 446.541,-99.5722"/>
<polygon fill="black" stroke="black" points="449.784,-98.257 442.821,-90.2721 443.285,-100.857 449.784,-98.257"/>
</g>
<!-- dot6b -->
<!-- SR2&#45;&gt;dot6b -->
<g id="edge20" class="edge"><title>SR2&#45;&gt;dot6b</title>
<path fill="none" stroke="black" d="M468.436,-120.73C471.134,-113.985 474.231,-106.242 476.899,-99.5722"/>
<polygon fill="black" stroke="black" points="480.155,-100.857 480.619,-90.2721 473.656,-98.257 480.155,-100.857"/>
</g>
<!-- tri1b -->
<g id="node32" class="node"><title>tri1b</title>
<polygon fill="none" stroke="black" points="299,-36 288,-9 310,-9 299,-36"/>
<text text-anchor="middle" x="299" y="-14.3" font-family="Helvetica,sans-Serif" font-weight="bold" font-size="14.00">1</text>
</g>
<!-- tri2b -->
<g id="node33" class="node"><title>tri2b</title>
<polygon fill="none" stroke="black" points="336.44,-36 325.44,-9 347.44,-9 336.44,-36"/>
<text text-anchor="middle" x="336.44" y="-14.3" font-family="Helvetica,sans-Serif" font-weight="bold" font-size="14.00">2</text>
</g>
<!-- tri3b -->
<g id="node34" class="node"><title>tri3b</title>
<polygon fill="none" stroke="black" points="371,-36 360,-9 382,-9 371,-36"/>
<text text-anchor="middle" x="371" y="-14.3" font-family="Helvetica,sans-Serif" font-weight="bold" font-size="14.00">3</text>
</g>
<!-- tri4b -->
<g id="node35" class="node"><title>tri4b</title>
<polygon fill="none" stroke="black" points="408.44,-36 397.44,-9 419.44,-9 408.44,-36"/>
<text text-anchor="middle" x="408.44" y="-14.3" font-family="Helvetica,sans-Serif" font-weight="bold" font-size="14.00">4</text>
</g>
<!-- tri5b -->
<g id="node36" class="node"><title>tri5b</title>
<polygon fill="none" stroke="black" points="443,-90 432,-63 454,-63 443,-90"/>
<text text-anchor="middle" x="443" y="-68.3" font-family="Helvetica,sans-Serif" font-weight="bold" font-size="14.00">5</text>
</g>
<!-- tri6b -->
<g id="node37" class="node"><title>tri6b</title>
<polygon fill="none" stroke="black" points="480.44,-90 469.44,-63 491.44,-63 480.44,-90"/>
<text text-anchor="middle" x="480.44" y="-68.3" font-family="Helvetica,sans-Serif" font-weight="bold" font-size="14.00">6</text>
</g>
<!-- subscript3 -->
<g id="node38" class="node"><title>subscript3</title>
<text text-anchor="middle" x="398.36" y="-76.7" font-family="Helvetica,sans-Serif" font-weight="bold" font-size="10.00" fill="white">L</text>
</g>
<!-- subscript4 -->
<g id="node39" class="node"><title>subscript4</title>
<text text-anchor="middle" x="470.36" y="-130.7" font-family="Helvetica,sans-Serif" font-weight="bold" font-size="10.00" fill="white">R</text>
</g>
</g>
</svg>
