<?xml version="1.0" encoding="UTF-8" standalone="no"?>
<!DOCTYPE svg PUBLIC "-//W3C//DTD SVG 1.1//EN"
 "http://www.w3.org/Graphics/SVG/1.1/DTD/svg11.dtd">
<!-- Generated by graphviz version 2.36.0 (20140111.2315)
 -->
<!-- Title: G Pages: 1 -->
<svg width="364pt" height="224pt"
 viewBox="0.00 0.00 364.24 224.00" xmlns="http://www.w3.org/2000/svg" xmlns:xlink="http://www.w3.org/1999/xlink">
<g id="graph0" class="graph" transform="scale(1 1) rotate(0) translate(4 220)">
<title>G</title>
<polygon fill="white" stroke="none" points="-4,4 -4,-220 360.24,-220 360.24,4 -4,4"/>
<!-- S1 -->
<g id="node1" class="node"><title>S1</title>
<ellipse fill="black" stroke="black" cx="68.6" cy="-144" rx="18" ry="18"/>
<text text-anchor="middle" x="68.6" y="-140.3" font-family="Helvetica,sans-Serif" font-weight="bold" font-size="14.00" fill="white">S</text>
</g>
<!-- SL1 -->
<g id="node2" class="node"><title>SL1</title>
<ellipse fill="red" stroke="black" cx="32.6" cy="-90" rx="18" ry="18"/>
<text text-anchor="middle" x="32.6" y="-86.3" font-family="Helvetica,sans-Serif" font-weight="bold" font-size="14.00" fill="white">S</text>
</g>
<!-- S1&#45;&gt;SL1 -->
<g id="edge1" class="edge"><title>S1&#45;&gt;SL1</title>
<path fill="none" stroke="black" d="M58.572,-128.958C55.4266,-124.24 51.8741,-118.911 48.4293,-113.744"/>
<polygon fill="black" stroke="black" points="51.2836,-111.716 42.8244,-105.337 45.4592,-115.599 51.2836,-111.716"/>
</g>
<!-- SR1 -->
<g id="node3" class="node"><title>SR1</title>
<ellipse fill="black" stroke="black" cx="104.6" cy="-90" rx="18" ry="18"/>
<text text-anchor="middle" x="104.6" y="-86.3" font-family="Helvetica,sans-Serif" font-weight="bold" font-size="14.00" fill="white">S</text>
</g>
<!-- S1&#45;&gt;SR1 -->
<g id="edge2" class="edge"><title>S1&#45;&gt;SR1</title>
<path fill="none" stroke="black" d="M78.628,-128.958C81.7735,-124.24 85.3259,-118.911 88.7707,-113.744"/>
<polygon fill="black" stroke="black" points="91.7408,-115.599 94.3756,-105.337 85.9164,-111.716 91.7408,-115.599"/>
</g>
<!-- dot1 -->
<g id="node4" class="node"><title>dot1</title>
<ellipse fill="black" stroke="black" cx="11" cy="-36" rx="7" ry="7"/>
</g>
<!-- SL1&#45;&gt;dot1 -->
<g id="edge3" class="edge"><title>SL1&#45;&gt;dot1</title>
<path fill="none" stroke="black" d="M25.884,-73.2101C23.1858,-66.4645 20.0888,-58.7219 17.4209,-52.0522"/>
<polygon fill="black" stroke="black" points="20.6645,-50.737 13.7008,-42.7521 14.1651,-53.3367 20.6645,-50.737"/>
</g>
<!-- dot2 -->
<g id="node5" class="node"><title>dot2</title>
<ellipse fill="black" stroke="black" cx="54.2" cy="-36" rx="7" ry="7"/>
</g>
<!-- SL1&#45;&gt;dot2 -->
<g id="edge4" class="edge"><title>SL1&#45;&gt;dot2</title>
<path fill="none" stroke="black" d="M39.316,-73.2101C42.0142,-66.4645 45.1113,-58.7219 47.7791,-52.0522"/>
<polygon fill="black" stroke="black" points="51.0349,-53.3367 51.4992,-42.7521 44.5355,-50.737 51.0349,-53.3367"/>
</g>
<!-- dot3 -->
<!-- SR1&#45;&gt;dot3 -->
<g id="edge5" class="edge"><title>SR1&#45;&gt;dot3</title>
<path fill="none" stroke="black" d="M97.884,-73.2101C95.1858,-66.4645 92.0888,-58.7219 89.4209,-52.0522"/>
<polygon fill="black" stroke="black" points="92.6645,-50.737 85.7008,-42.7521 86.1651,-53.3367 92.6645,-50.737"/>
</g>
<!-- dot4 -->
<!-- SR1&#45;&gt;dot4 -->
<g id="edge6" class="edge"><title>SR1&#45;&gt;dot4</title>
<path fill="none" stroke="black" d="M111.316,-73.2101C114.014,-66.4645 117.111,-58.7219 119.779,-52.0522"/>
<polygon fill="black" stroke="black" points="123.035,-53.3367 123.499,-42.7521 116.536,-50.737 123.035,-53.3367"/>
</g>
<!-- tri1 -->
<g id="node8" class="node"><title>tri1</title>
<polygon fill="none" stroke="black" points="11,-36 -1.77636e-15,-9 22,-9 11,-36"/>
<text text-anchor="middle" x="11" y="-14.3" font-family="Helvetica,sans-Serif" font-weight="bold" font-size="14.00">1</text>
</g>
<!-- tri2 -->
<g id="node9" class="node"><title>tri2</title>
<polygon fill="none" stroke="black" points="54.2,-36 43.2,-9 65.2,-9 54.2,-36"/>
<text text-anchor="middle" x="54.2" y="-14.3" font-family="Helvetica,sans-Serif" font-weight="bold" font-size="14.00">2</text>
</g>
<!-- tri3 -->
<g id="node10" class="node"><title>tri3</title>
<polygon fill="none" stroke="black" points="85.88,-42.48 74.88,-15.48 96.88,-15.48 85.88,-42.48"/>
<text text-anchor="middle" x="85.88" y="-20.78" font-family="Helvetica,sans-Serif" font-weight="bold" font-size="14.00">3</text>
</g>
<!-- tri4 -->
<g id="node11" class="node"><title>tri4</title>
<polygon fill="none" stroke="black" points="123.32,-42.48 112.32,-15.48 134.32,-15.48 123.32,-42.48"/>
<text text-anchor="middle" x="123.32" y="-20.78" font-family="Helvetica,sans-Serif" font-weight="bold" font-size="14.00">4</text>
</g>
<!-- subscript1 -->
<g id="node12" class="node"><title>subscript1</title>
<text text-anchor="middle" x="41.24" y="-83.18" font-family="Helvetica,sans-Serif" font-weight="bold" font-size="10.00" fill="white">L</text>
</g>
<!-- subscript2 -->
<g id="node13" class="node"><title>subscript2</title>
<text text-anchor="middle" x="113.24" y="-83.18" font-family="Helvetica,sans-Serif" font-weight="bold" font-size="10.00" fill="white">R</text>
</g>
<!-- arrow -->
<g id="node14" class="node"><title>arrow</title>
<polygon fill="blue" stroke="black" points="194.6,-120 140.6,-120 140.6,-96 194.6,-96 194.6,-90 212.6,-108 194.6,-126 194.6,-120"/>
</g>
<!-- S2 -->
<g id="node15" class="node"><title>S2</title>
<ellipse fill="red" stroke="black" cx="284.6" cy="-144" rx="18" ry="18"/>
<text text-anchor="middle" x="284.6" y="-140.3" font-family="Helvetica,sans-Serif" font-weight="bold" font-size="14.00" fill="white">S</text>
</g>
<!-- SR2 -->
<g id="node17" class="node"><title>SR2</title>
<ellipse fill="black" stroke="black" cx="320.6" cy="-90" rx="18" ry="18"/>
<text text-anchor="middle" x="320.6" y="-86.3" font-family="Helvetica,sans-Serif" font-weight="bold" font-size="14.00" fill="white">S</text>
</g>
<!-- S2&#45;&gt;SR2 -->
<g id="edge8" class="edge"><title>S2&#45;&gt;SR2</title>
<path fill="none" stroke="black" d="M294.628,-128.958C297.773,-124.24 301.326,-118.911 304.771,-113.744"/>
<polygon fill="black" stroke="black" points="307.741,-115.599 310.376,-105.337 301.916,-111.716 307.741,-115.599"/>
</g>
<!-- dot2b -->
<g id="node19" class="node"><title>dot2b</title>
<ellipse fill="black" stroke="black" cx="263" cy="-90" rx="7" ry="7"/>
</g>
<!-- S2&#45;&gt;dot2b -->
<g id="edge10" class="edge"><title>S2&#45;&gt;dot2b</title>
<path fill="none" stroke="black" d="M277.884,-127.21C275.186,-120.465 272.089,-112.722 269.421,-106.052"/>
<polygon fill="black" stroke="black" points="272.664,-104.737 265.701,-96.7521 266.165,-107.337 272.664,-104.737"/>
</g>
<!-- SL2 -->
<g id="node16" class="node"><title>SL2</title>
<ellipse fill="black" stroke="black" cx="248.6" cy="-198" rx="18" ry="18"/>
<text text-anchor="middle" x="248.6" y="-194.3" font-family="Helvetica,sans-Serif" font-weight="bold" font-size="14.00" fill="white">S</text>
</g>
<!-- SL2&#45;&gt;S2 -->
<g id="edge7" class="edge"><title>SL2&#45;&gt;S2</title>
<path fill="none" stroke="black" d="M258.628,-182.958C261.773,-178.24 265.326,-172.911 268.771,-167.744"/>
<polygon fill="black" stroke="black" points="271.741,-169.599 274.376,-159.337 265.916,-165.716 271.741,-169.599"/>
</g>
<!-- dot1b -->
<g id="node18" class="node"><title>dot1b</title>
<ellipse fill="black" stroke="black" cx="227" cy="-144" rx="7" ry="7"/>
</g>
<!-- SL2&#45;&gt;dot1b -->
<g id="edge9" class="edge"><title>SL2&#45;&gt;dot1b</title>
<path fill="none" stroke="black" d="M241.884,-181.21C239.186,-174.465 236.089,-166.722 233.421,-160.052"/>
<polygon fill="black" stroke="black" points="236.664,-158.737 229.701,-150.752 230.165,-161.337 236.664,-158.737"/>
</g>
<!-- dot3b -->
<!-- SR2&#45;&gt;dot3b -->
<g id="edge11" class="edge"><title>SR2&#45;&gt;dot3b</title>
<path fill="none" stroke="black" d="M313.884,-73.2101C311.186,-66.4645 308.089,-58.7219 305.421,-52.0522"/>
<polygon fill="black" stroke="black" points="308.664,-50.737 301.701,-42.7521 302.165,-53.3367 308.664,-50.737"/>
</g>
<!-- dot4b -->
<!-- SR2&#45;&gt;dot4b -->
<g id="edge12" class="edge"><title>SR2&#45;&gt;dot4b</title>
<path fill="none" stroke="black" d="M327.316,-73.2101C330.014,-66.4645 333.111,-58.7219 335.779,-52.0522"/>
<polygon fill="black" stroke="black" points="339.035,-53.3367 339.499,-42.7521 332.536,-50.737 339.035,-53.3367"/>
</g>
<!-- tri1b -->
<g id="node22" class="node"><title>tri1b</title>
<polygon fill="none" stroke="black" points="227,-144 216,-117 238,-117 227,-144"/>
<text text-anchor="middle" x="227" y="-122.3" font-family="Helvetica,sans-Serif" font-weight="bold" font-size="14.00">1</text>
</g>
<!-- tri2b -->
<g id="node23" class="node"><title>tri2b</title>
<polygon fill="none" stroke="black" points="263,-90 252,-63 274,-63 263,-90"/>
<text text-anchor="middle" x="263" y="-68.3" font-family="Helvetica,sans-Serif" font-weight="bold" font-size="14.00">2</text>
</g>
<!-- tri3b -->
<g id="node24" class="node"><title>tri3b</title>
<polygon fill="none" stroke="black" points="301.88,-42.48 290.88,-15.48 312.88,-15.48 301.88,-42.48"/>
<text text-anchor="middle" x="301.88" y="-20.78" font-family="Helvetica,sans-Serif" font-weight="bold" font-size="14.00">3</text>
</g>
<!-- tri4b -->
<g id="node25" class="node"><title>tri4b</title>
<polygon fill="none" stroke="black" points="339.32,-42.48 328.32,-15.48 350.32,-15.48 339.32,-42.48"/>
<text text-anchor="middle" x="339.32" y="-20.78" font-family="Helvetica,sans-Serif" font-weight="bold" font-size="14.00">4</text>
</g>
<!-- subscript3 -->
<g id="node26" class="node"><title>subscript3</title>
<text text-anchor="middle" x="257.24" y="-191.18" font-family="Helvetica,sans-Serif" font-weight="bold" font-size="10.00" fill="white">L</text>
</g>
<!-- subscript4 -->
<g id="node27" class="node"><title>subscript4</title>
<text text-anchor="middle" x="329.24" y="-83.18" font-family="Helvetica,sans-Serif" font-weight="bold" font-size="10.00" fill="white">R</text>
</g>
</g>
</svg>
