<?xml version="1.0" encoding="UTF-8" standalone="no"?>
<!DOCTYPE svg PUBLIC "-//W3C//DTD SVG 1.1//EN"
 "http://www.w3.org/Graphics/SVG/1.1/DTD/svg11.dtd">
<!-- Generated by graphviz version 2.36.0 (20140111.2315)
 -->
<!-- Title: G Pages: 1 -->
<svg width="505pt" height="206pt"
 viewBox="0.00 0.00 505.36 206.00" xmlns="http://www.w3.org/2000/svg" xmlns:xlink="http://www.w3.org/1999/xlink">
<g id="graph0" class="graph" transform="scale(1 1) rotate(0) translate(4 202)">
<title>G</title>
<polygon fill="white" stroke="none" points="-4,4 -4,-202 501.36,-202 501.36,4 -4,4"/>
<!-- P1 -->
<g id="node1" class="node"><title>P1</title>
<ellipse fill="white" stroke="black" cx="83.72" cy="-180" rx="18" ry="18"/>
<text text-anchor="middle" x="83.72" y="-176.3" font-family="Helvetica,sans-Serif" font-weight="bold" font-size="14.00">P</text>
</g>
<!-- N1 -->
<g id="node2" class="node"><title>N1</title>
<ellipse fill="black" stroke="black" cx="33.32" cy="-144" rx="18" ry="18"/>
<text text-anchor="middle" x="33.32" y="-140.3" font-family="Helvetica,sans-Serif" font-weight="bold" font-size="14.00" fill="white">N</text>
</g>
<!-- P1&#45;&gt;N1 -->
<g id="edge1" class="edge"><title>P1&#45;&gt;N1</title>
<path fill="none" stroke="black" d="M68.8709,-169.394C65.0091,-166.635 60.7546,-163.596 56.5722,-160.609"/>
<polygon fill="black" stroke="black" points="58.4088,-157.619 48.2371,-154.655 54.3401,-163.316 58.4088,-157.619"/>
</g>
<!-- S1 -->
<g id="node3" class="node"><title>S1</title>
<ellipse fill="black" stroke="black" cx="137.72" cy="-144" rx="18" ry="18"/>
<text text-anchor="middle" x="137.72" y="-140.3" font-family="Helvetica,sans-Serif" font-weight="bold" font-size="14.00" fill="white">S</text>
</g>
<!-- P1&#45;&gt;S1 -->
<g id="edge2" class="edge"><title>P1&#45;&gt;S1</title>
<path fill="none" stroke="black" d="M98.762,-169.972C103.48,-166.827 108.809,-163.274 113.976,-159.829"/>
<polygon fill="black" stroke="black" points="116.004,-162.684 122.383,-154.224 112.121,-156.859 116.004,-162.684"/>
</g>
<!-- dot1 -->
<!-- N1&#45;&gt;dot1 -->
<g id="edge4" class="edge"><title>N1&#45;&gt;dot1</title>
<path fill="none" stroke="black" d="M25.6222,-127.505C22.4306,-120.666 18.7419,-112.761 15.5762,-105.977"/>
<polygon fill="black" stroke="black" points="18.5791,-104.136 11.1785,-96.554 12.2358,-107.096 18.5791,-104.136"/>
</g>
<!-- dot2 -->
<!-- N1&#45;&gt;dot2 -->
<g id="edge5" class="edge"><title>N1&#45;&gt;dot2</title>
<path fill="none" stroke="black" d="M39.0153,-126.914C41.2059,-120.342 43.6999,-112.86 45.8671,-106.359"/>
<polygon fill="black" stroke="black" points="49.2528,-107.269 49.0948,-96.6756 42.6121,-105.056 49.2528,-107.269"/>
</g>
<!-- SR1 -->
<g id="node4" class="node"><title>SR1</title>
<ellipse fill="red" stroke="black" cx="173.72" cy="-90" rx="18" ry="18"/>
<text text-anchor="middle" x="173.72" y="-86.3" font-family="Helvetica,sans-Serif" font-weight="bold" font-size="14.00" fill="white">S</text>
</g>
<!-- S1&#45;&gt;SR1 -->
<g id="edge3" class="edge"><title>S1&#45;&gt;SR1</title>
<path fill="none" stroke="black" d="M147.748,-128.958C150.893,-124.24 154.446,-118.911 157.891,-113.744"/>
<polygon fill="black" stroke="black" points="160.861,-115.599 163.496,-105.337 155.036,-111.716 160.861,-115.599"/>
</g>
<!-- dot3 -->
<!-- S1&#45;&gt;dot3 -->
<g id="edge6" class="edge"><title>S1&#45;&gt;dot3</title>
<path fill="none" stroke="black" d="M127.692,-128.958C122.601,-121.322 116.445,-112.087 111.403,-104.525"/>
<polygon fill="black" stroke="black" points="114.238,-102.467 105.779,-96.0879 108.413,-106.35 114.238,-102.467"/>
</g>
<!-- dot4 -->
<g id="node8" class="node"><title>dot4</title>
<ellipse fill="black" stroke="black" cx="155.72" cy="-36" rx="7" ry="7"/>
</g>
<!-- SR1&#45;&gt;dot4 -->
<g id="edge7" class="edge"><title>SR1&#45;&gt;dot4</title>
<path fill="none" stroke="black" d="M168.025,-72.9141C165.834,-66.3422 163.34,-58.8604 161.173,-52.3586"/>
<polygon fill="black" stroke="black" points="164.428,-51.0556 157.945,-42.6756 157.787,-53.2693 164.428,-51.0556"/>
</g>
<!-- dot5 -->
<g id="node9" class="node"><title>dot5</title>
<ellipse fill="black" stroke="black" cx="191.72" cy="-36" rx="7" ry="7"/>
</g>
<!-- SR1&#45;&gt;dot5 -->
<g id="edge8" class="edge"><title>SR1&#45;&gt;dot5</title>
<path fill="none" stroke="black" d="M179.415,-72.9141C181.606,-66.3422 184.1,-58.8604 186.267,-52.3586"/>
<polygon fill="black" stroke="black" points="189.653,-53.2693 189.495,-42.6756 183.012,-51.0556 189.653,-53.2693"/>
</g>
<!-- tri1 -->
<g id="node10" class="node"><title>tri1</title>
<polygon fill="none" stroke="black" points="11,-96.48 -1.77636e-15,-69.48 22,-69.48 11,-96.48"/>
<text text-anchor="middle" x="11" y="-74.78" font-family="Helvetica,sans-Serif" font-weight="bold" font-size="14.00">1</text>
</g>
<!-- tri2 -->
<g id="node11" class="node"><title>tri2</title>
<polygon fill="none" stroke="black" points="49.16,-96.48 38.16,-69.48 60.16,-69.48 49.16,-96.48"/>
<text text-anchor="middle" x="49.16" y="-74.78" font-family="Helvetica,sans-Serif" font-weight="bold" font-size="14.00">2</text>
</g>
<!-- tri3 -->
<g id="node12" class="node"><title>tri3</title>
<polygon fill="none" stroke="black" points="104.6,-96.48 93.6,-69.48 115.6,-69.48 104.6,-96.48"/>
<text text-anchor="middle" x="104.6" y="-74.78" font-family="Helvetica,sans-Serif" font-weight="bold" font-size="14.00">3</text>
</g>
<!-- tri4 -->
<g id="node13" class="node"><title>tri4</title>
<polygon fill="none" stroke="black" points="155.72,-36 144.72,-9 166.72,-9 155.72,-36"/>
<text text-anchor="middle" x="155.72" y="-14.3" font-family="Helvetica,sans-Serif" font-weight="bold" font-size="14.00">4</text>
</g>
<!-- tri5 -->
<g id="node14" class="node"><title>tri5</title>
<polygon fill="none" stroke="black" points="191.72,-36 180.72,-9 202.72,-9 191.72,-36"/>
<text text-anchor="middle" x="191.72" y="-14.3" font-family="Helvetica,sans-Serif" font-weight="bold" font-size="14.00">5</text>
</g>
<!-- subscript2 -->
<g id="node15" class="node"><title>subscript2</title>
<text text-anchor="middle" x="182.36" y="-83.18" font-family="Helvetica,sans-Serif" font-weight="bold" font-size="10.00" fill="white">R</text>
</g>
<!-- arrow -->
<g id="node16" class="node"><title>arrow</title>
<polygon fill="blue" stroke="black" points="263.72,-120 209.72,-120 209.72,-96 263.72,-96 263.72,-90 281.72,-108 263.72,-126 263.72,-120"/>
</g>
<!-- S2 -->
<g id="node17" class="node"><title>S2</title>
<ellipse fill="white" stroke="black" cx="407.72" cy="-180" rx="18" ry="18"/>
<text text-anchor="middle" x="407.72" y="-176.3" font-family="Helvetica,sans-Serif" font-weight="bold" font-size="14.00">S</text>
</g>
<!-- P2 -->
<g id="node19" class="node"><title>P2</title>
<ellipse fill="black" stroke="black" cx="353.72" cy="-144" rx="18" ry="18"/>
<text text-anchor="middle" x="353.72" y="-140.3" font-family="Helvetica,sans-Serif" font-weight="bold" font-size="14.00" fill="white">P</text>
</g>
<!-- S2&#45;&gt;P2 -->
<g id="edge9" class="edge"><title>S2&#45;&gt;P2</title>
<path fill="none" stroke="black" d="M392.678,-169.972C387.96,-166.827 382.631,-163.274 377.464,-159.829"/>
<polygon fill="black" stroke="black" points="379.319,-156.859 369.057,-154.224 375.436,-162.684 379.319,-156.859"/>
</g>
<!-- SR2 -->
<g id="node20" class="node"><title>SR2</title>
<ellipse fill="black" stroke="black" cx="461.72" cy="-144" rx="18" ry="18"/>
<text text-anchor="middle" x="461.72" y="-140.3" font-family="Helvetica,sans-Serif" font-weight="bold" font-size="14.00" fill="white">S</text>
</g>
<!-- S2&#45;&gt;SR2 -->
<g id="edge10" class="edge"><title>S2&#45;&gt;SR2</title>
<path fill="none" stroke="black" d="M422.762,-169.972C427.48,-166.827 432.809,-163.274 437.976,-159.829"/>
<polygon fill="black" stroke="black" points="440.004,-162.684 446.383,-154.224 436.121,-156.859 440.004,-162.684"/>
</g>
<!-- N2 -->
<g id="node18" class="node"><title>N2</title>
<ellipse fill="black" stroke="black" cx="317.72" cy="-90" rx="18" ry="18"/>
<text text-anchor="middle" x="317.72" y="-86.3" font-family="Helvetica,sans-Serif" font-weight="bold" font-size="14.00" fill="white">N</text>
</g>
<!-- dot1b -->
<!-- N2&#45;&gt;dot1b -->
<g id="edge13" class="edge"><title>N2&#45;&gt;dot1b</title>
<path fill="none" stroke="black" d="M311.004,-73.2101C308.306,-66.4645 305.209,-58.7219 302.541,-52.0522"/>
<polygon fill="black" stroke="black" points="305.784,-50.737 298.821,-42.7521 299.285,-53.3367 305.784,-50.737"/>
</g>
<!-- dot2b -->
<!-- N2&#45;&gt;dot2b -->
<g id="edge14" class="edge"><title>N2&#45;&gt;dot2b</title>
<path fill="none" stroke="black" d="M324.436,-73.2101C327.134,-66.4645 330.231,-58.7219 332.899,-52.0522"/>
<polygon fill="black" stroke="black" points="336.155,-53.3367 336.619,-42.7521 329.656,-50.737 336.155,-53.3367"/>
</g>
<!-- P2&#45;&gt;N2 -->
<g id="edge11" class="edge"><title>P2&#45;&gt;N2</title>
<path fill="none" stroke="black" d="M343.692,-128.958C340.547,-124.24 336.994,-118.911 333.549,-113.744"/>
<polygon fill="black" stroke="black" points="336.404,-111.716 327.944,-105.337 330.579,-115.599 336.404,-111.716"/>
</g>
<!-- dot3b -->
<!-- P2&#45;&gt;dot3b -->
<g id="edge12" class="edge"><title>P2&#45;&gt;dot3b</title>
<path fill="none" stroke="black" d="M363.748,-128.958C368.839,-121.322 374.995,-112.087 380.037,-104.525"/>
<polygon fill="black" stroke="black" points="383.027,-106.35 385.661,-96.0879 377.202,-102.467 383.027,-106.35"/>
</g>
<!-- dot4b -->
<g id="node24" class="node"><title>dot4b</title>
<ellipse fill="black" stroke="black" cx="443.72" cy="-90" rx="7" ry="7"/>
</g>
<!-- SR2&#45;&gt;dot4b -->
<g id="edge15" class="edge"><title>SR2&#45;&gt;dot4b</title>
<path fill="none" stroke="black" d="M456.025,-126.914C453.834,-120.342 451.34,-112.86 449.173,-106.359"/>
<polygon fill="black" stroke="black" points="452.428,-105.056 445.945,-96.6756 445.787,-107.269 452.428,-105.056"/>
</g>
<!-- dot5b -->
<g id="node25" class="node"><title>dot5b</title>
<ellipse fill="black" stroke="black" cx="479.72" cy="-90" rx="7" ry="7"/>
</g>
<!-- SR2&#45;&gt;dot5b -->
<g id="edge16" class="edge"><title>SR2&#45;&gt;dot5b</title>
<path fill="none" stroke="black" d="M467.415,-126.914C469.606,-120.342 472.1,-112.86 474.267,-106.359"/>
<polygon fill="black" stroke="black" points="477.653,-107.269 477.495,-96.6756 471.012,-105.056 477.653,-107.269"/>
</g>
<!-- tri1b -->
<g id="node26" class="node"><title>tri1b</title>
<polygon fill="none" stroke="black" points="299,-42.48 288,-15.48 310,-15.48 299,-42.48"/>
<text text-anchor="middle" x="299" y="-20.78" font-family="Helvetica,sans-Serif" font-weight="bold" font-size="14.00">1</text>
</g>
<!-- tri2b -->
<g id="node27" class="node"><title>tri2b</title>
<polygon fill="none" stroke="black" points="336.44,-42.48 325.44,-15.48 347.44,-15.48 336.44,-42.48"/>
<text text-anchor="middle" x="336.44" y="-20.78" font-family="Helvetica,sans-Serif" font-weight="bold" font-size="14.00">2</text>
</g>
<!-- tri3b -->
<g id="node28" class="node"><title>tri3b</title>
<polygon fill="none" stroke="black" points="386.84,-96.48 375.84,-69.48 397.84,-69.48 386.84,-96.48"/>
<text text-anchor="middle" x="386.84" y="-74.78" font-family="Helvetica,sans-Serif" font-weight="bold" font-size="14.00">3</text>
</g>
<!-- tri4b -->
<g id="node29" class="node"><title>tri4b</title>
<polygon fill="none" stroke="black" points="443.72,-90 432.72,-63 454.72,-63 443.72,-90"/>
<text text-anchor="middle" x="443.72" y="-68.3" font-family="Helvetica,sans-Serif" font-weight="bold" font-size="14.00">4</text>
</g>
<!-- tri5b -->
<g id="node30" class="node"><title>tri5b</title>
<polygon fill="none" stroke="black" points="479.72,-90 468.72,-63 490.72,-63 479.72,-90"/>
<text text-anchor="middle" x="479.72" y="-68.3" font-family="Helvetica,sans-Serif" font-weight="bold" font-size="14.00">5</text>
</g>
<!-- subscript4 -->
<g id="node31" class="node"><title>subscript4</title>
<text text-anchor="middle" x="470.36" y="-137.18" font-family="Helvetica,sans-Serif" font-weight="bold" font-size="10.00" fill="white">R</text>
</g>
</g>
</svg>
